# xmcd
#
# Track frame offsets:
# 150
# 19992
# 36348
# 52760
# 70750
# 85662
# 109784
# 121080
# 133231
# 156276
#
# Disc length: 2283 seconds
#
#
# Revision: 2
# Processed by: cddbd v1.5.1PL2 Copyright (c) Steve Scherf et al.
# Submitted via: FreeRIP 2.945 
#
DISCID=7e08e90a
DTITLE=B.B. King - B.B's Boogie
DYEAR=1900
DGENRE=Blues
TTITLE0=Sweet Sixteen
TTITLE1=The Other Night Blues
TTITLE2=It's My Own Fault
TTITLE3=Evil Child
TTITLE4=Mr Pawnbroker
TTITLE5=You Done Your Good Thing Now
TTITLE6=Catfish Blues
TTITLE7=Paying The Cost To The Boss
TTITLE8=Everyday I Have The Blues
TTITLE9=B.B's Boogie
EXTD=
EXTT0=
EXTT1=
EXTT2=
EXTT3=
EXTT4=
EXTT5=
EXTT6=
EXTT7=
EXTT8=
EXTT9=
PLAYORDER=
